name processed_emg_signals
nRows=73
nColumns=7
 
endheader
time	LGLTMED	LRF	LADDLONG	LST	LTA	LGM
0.885	0.3007163895388142	0.2096945302871194	0.6217208962996741	0.4171271899078608	0.3242155353449236	0.0884013038949916
0.886	0.3001538949052573	0.2116088199189312	0.6261160380879879	0.4282896919257627	0.3263300317593554	0.0895324729445019
0.887	0.2995444856471219	0.2136122190068303	0.6305010547920717	0.4394615306489814	0.3285624080274327	0.0906827607697328
0.888	0.2988887508854319	0.2157062592382625	0.6348735935820651	0.4506340163052845	0.3309115107540459	0.0918516739668616
0.889	0.2981873731230878	0.2178924439920875	0.6392313453841364	0.4617983586052262	0.33337610373417	0.0930386999330926
0.89	0.2974411292206825	0.2201722458704154	0.6435720454725409	0.4729456771359814	0.3359548701366556	0.0942433070029134
0.891	0.2966508912277326	0.2225471042046541	0.647893473906156	0.4840670120042457	0.3386464147735227	0.0954649446213384
0.892	0.295817627062182	0.2250184225366283	0.6521934558121494	0.4951533347064811	0.3414492664494458	0.0967030435551864
0.893	0.2949424010313963	0.2275875660761693	0.6564698615205954	0.5061955592035942	0.344361880388005	0.0979570161433626
0.894	0.29402637418856	0.2302558591360083	0.6607206065550215	0.5171845531761182	0.3473826407334842	0.0992262565873814
0.895	0.2930708045192897	0.2330245825456774	0.6649436514855944	0.5281111494349962	0.3505098631292397	0.1005101412834653
0.896	0.2920770469537138	0.2358949710458343	0.669137001653087	0.5389661574623388	0.3537417973750756	0.101808029197618
0.897	0.2910465531998164	0.2388682106650336	0.6732987067734967	0.5497403750563228	0.3570766301671513	0.1031192622850658
0.898	0.2899808713946942	0.2419454360808306	0.6774268604342912	0.5604246000545854	0.3605124879242247	0.1044431659552859
0.899	0.2888816455703685	0.2451277279679907	0.6815195994934043	0.571009642110829	0.3640474397039237	0.1057790495836585
0.9	0.2877506149317314	0.2484161103360788	0.6855751033921944	0.5814863344999035	0.3676795002119561	0.1071262070705498
0.901	0.2865896129438596	0.2518115478600882	0.6895915933925066	0.5918455459274186	0.3714066329061333	0.1084839174482903
0.902	0.2854005662272768	0.2553149432071173	0.6935673317481557	0.6020781923215058	0.3752267531961273	0.109851445536189
0.903	0.284185493260061	0.2589271343631587	0.6975006208201936	0.6121752485863957	0.3791377317387472	0.1112280426433663
0.904	0.2829465028869981	0.2626488919641432	0.7013898021465518	0.6221277602998389	0.3831373978274932	0.1126129473187459
0.905	0.2816857926367219	0.2664809166364689	0.7052332554742532	0.6319268553389397	0.3872235428741962	0.1140053861472726
0.906	0.2804056468484369	0.2704238363528222	0.7090293977647576	0.6415637554206703	0.3913939239794602	0.115404574591046
0.907	0.2791084346096739	0.2744782038105575	0.7127766821821582	0.6510297875442076	0.395646267587876	0.1168097178736711
0.908	0.2777966075065014	0.2786444938399282	0.7164735970759492	0.6603163953225166	0.3999782732232154	0.1182200119061492
0.909	0.2764726971872799	0.2829231008501267	0.720118664970864	0.6694151501913207	0.4043876172984337	0.1196346442522119
0.91	0.2751393127411837	0.2873143363205803	0.7237104415759757	0.6783177624851248	0.4088719569949649	0.1210527951310608
0.911	0.2737991378931258	0.291818426345488	0.7272475148259485	0.687016092371569	0.4134289342057757	0.1224736384551853
0.912	0.2724549280179051	0.2964355092394874	0.7307285039655879	0.6955021606367412	0.4180561795363278	0.1238963429008867
0.913	0.2711095069770005	0.3011656332120369	0.7341520586885796	0.7037681593145468	0.4227513163570841	0.1253200730088851
0.914	0.2697657637827333	0.3060087541184562	0.7375168583405541	0.711806462152722	0.4275119649002338	0.1267439903122699
0.915	0.2684266490949016	0.3109647332945593	0.740821611195335	0.7196096349066151	0.4323357463919621	0.1281672544888583
0.916	0.2670951715555505	0.3160333354821016	0.7440650538126005	0.7271704454501857	0.4372202872102348	0.1295890245348036
0.917	0.265774393967293	0.3212142268514351	0.7472459504828945	0.7344818736917345	0.4421632230565596	0.1310084599561589
0.918	0.2644674293207884	0.3265069731275257	0.7503630927650875	0.7415371212802534	0.4471622031286952	0.1324247219748503
0.919	0.2631774366766246	0.3319110378250323	0.7534152991188773	0.7483296210871181	0.4522148942796868	0.1338369747452804
0.92	0.2619076169071968	0.3374257805975359	0.7564014146351385	0.7548530464470725	0.4573189851471955	0.1352443865774685
0.921	0.2606612083039836	0.3430504557061871	0.7593203108656391	0.7611013201418315	0.4624721902356543	0.1366461311623872
0.922	0.2594414820561942	0.3487842106120423	0.7621708857530768	0.767068623108992	0.4676722539325289	0.1380413887949481
0.923	0.2582517376076808	0.3546260846960547	0.7649520636620049	0.7727494028581482	0.4729169544386202	0.1394293475900933
0.924	0.2570952978993175	0.3605750081094919	0.7676627955116007	0.7781383815754179	0.4782041075911091	0.1408092046874358
0.925	0.255975504506149	0.366629800756709	0.7703020590096188	0.783230563896466	0.4835315705566682	0.1421801674398361
0.926	0.2548957126780888	0.3727891714119251	0.7728688589888746	0.7880212443265103	0.4888972453708007	0.143541454581361
0.927	0.2538592862948244	0.3790517169712529	0.7753622278461947	0.7925060142838584	0.4942990822984114	0.1448922973698635
0.928	0.2528695927447512	0.3854159218425033	0.7777812260858351	0.7966807687415414	0.4997350829895259	0.1462319406992225
0.929	0.251929997738649	0.3918801574753728	0.7801249429698713	0.8005417124401047	0.5052033034029928	0.1475596441761506
0.93	0.2510438600680786	0.3984426820357845	0.7823924972799133	0.8040853656440266	0.5107018564703718	0.1488746831564193
0.931	0.250214526318592	0.4051016402281394	0.7845830381945907	0.8073085694147716	0.516228914471932	0.1501763497351932
0.932	0.2494453255473801	0.4118550632695418	0.7866957462868926	0.8102084903758114	0.5217827110969608	0.1514639536863455
0.933	0.2487395639352138	0.418700869020185	0.7887298346435095	0.8127826249487973	0.5273615431613962	0.1527368233456252
0.934	0.2481005194218926	0.4256368622740017	0.7906845501065949	0.8150288030450863	0.5329637719573813	0.1539943064330453
0.935	0.2475314363353095	0.4326607352136547	0.7925591746364252	0.816945191201927	0.5385878242119896	0.155235770810481
0.936	0.2470355200231368	0.4397700680330306	0.7943530267924247	0.8185302951572995	0.5442321926359183	0.1564606051712434
0.937	0.2466159314969437	0.4469623297297861	0.7960654633283476	0.8197829618617148	0.5498954360471213	0.1576682196595545
0.9380000000000001	0.2462757820970612	0.4542348790705127	0.7976958808967599	0.8207023809289264	0.555576179060146	0.1588580464186596
0.9390000000000001	0.246018128186482	0.4615849657308489	0.79924371785736	0.821288085530944	0.5612731113398313	0.1600295400677978
0.9400000000000001	0.245845965881223	0.4690097316135766	0.8007084561814176	0.8215399527454259	0.566984986427238	0.1611821781090528
0.9410000000000001	0.245762225823705	0.4765062123474879	0.8020896234448123	0.8214582033647273	0.572710620153893	0.1623154612665037
0.9420000000000001	0.2457697680053089	0.4840713389706139	0.8033867949004896	0.8210434011759083	0.5784488886662092	0.1634289137609369
0.9430000000000001	0.2458713766442662	0.491701939801448	0.8045995956206706	0.8202964517208996	0.5841987260849679	0.1645220835241602
0.9440000000000001	0.2460697551247785	0.499394742502268	0.8057277026985556	0.81921860054592	0.5899591218255672	0.165594542357458
0.9450000000000001	0.2463675210037474	0.5071463763392557	0.8067708474989683	0.8178114309493572	0.5957291176050097	0.1666458860387838
0.9460000000000001	0.2467672010924891	0.5149533746438256	0.8077288179471682	0.8160768612371306	0.6015078041614637	0.1676757343834569
0.9470000000000001	0.2472712266206203	0.5228121774801379	0.8086014608443587	0.8140171414942214	0.6072943177120574	0.1686837312629708
0.9480000000000001	0.2478819284906005	0.5307191345228314	0.8093886841980422	0.8116348498808008	0.6130878361742255	0.1696695445863794
0.9490000000000001	0.2486015326314736	0.5386705081487482	0.8100904595534515	0.8089328884605834	0.6188875751752043	0.1706328662484477
0.9500000000000001	0.2494321554602349	0.5466624767451587	0.8107068243122759	0.8059144785677926	0.6246927838733526	0.1715734120482626
0.9510000000000001	0.2503757994596632	0.554691138236636	0.8112378840231462	0.802583155718128	0.6305027406137845	0.1724909215816647
0.9520000000000001	0.2514343488804108	0.5627525138320227	0.8116838146284598	0.7989427640694151	0.636316748439826	0.173385158110305
0.9530000000000001	0.2526095655755834	0.5708425519930835	0.8120448646503395	0.7949974504400599	0.6421341304814014	0.1742559084097875
0.9540000000000001	0.2539030849751812	0.578957132626036	0.8123213573000082	0.7907516578972718	0.6479542252415366	0.1751029825990969
0.9550000000000001	0.2553164122084071	0.5870920714969734	0.8125136924933446	0.7862101189308595	0.6537763818029321	0.1759262139531765
0.9560000000000001	0.2568509183813399	0.5952431248723136	0.8126223487590486	0.7813778482311504	0.6595999549779292	0.1767254587006215
0.9570000000000001	0.2585078370181619	0.603405994384373	0.8126478850272508	0.7762601350912759	0.6654243004265932	0.1775005958083096
